<?xml version="1.0" encoding="UTF-8"?>
<svg version="1.1" viewBox="0 0 1280 1103" width="1280" height="1280" xmlns="http://www.w3.org/2000/svg">
<path transform="translate(0)" d="m0 0h1280v1103h-1280z" fill="#FEFFFE"/>
<path transform="translate(896,432)" d="m0 0 9 1 8 6 13 5 10 7 10 3 10 6 16 8 11 6 14 7 9 5 40 20 50 26 23 12 11 6 2 6 1 285-2 10-3 3-3 2h-104l-5-2v-2h-2l-2-6v-207l-2-5-7-4-6-5-12-5-8-7-12-5-11-8-12-6-9-7-10-4-12-9-6-2h-12l-13 4-11 8-12 4-12 8-15 6-8 6-16 6-10 7-12 4-8 5-4 3-5 2-2 5v207l-2 5-3 3-3 1h-105l-4-2-3-6v-290l3-8 29-14 28-13 33-16 22-10 16-8 28-13 19-9 14-7 20-9 16-8 14-6z" fill="#2D3091"/>
<path transform="translate(392,430)" d="m0 0 6 1 9 5 7 4 11 5 15 8 32 16 75 39 19 10 35 18 23 12 4 3 2 6 1 17v268l-2 9-4 4-2 1h-93l-6-4-2-7v-206l-2-5-14-9-18-9v-2l-6-2-15-8-9-5-16-9-7-4-12-6-9-6-18-9-7 1-16 9-7 4-10 6-9 4-3 1v2l-19 10-13 8-10 5-13 8-7 3-4 2-2 8v207l-3 9-6 4h-116l-6-4-2-3v-293l1-2 23-11 40-20 19-10 162-81z" fill="#2D3091"/>
<path transform="translate(646,28)" d="m0 0h9l9 6 38 20 11 6 25 13 22 12 106 57 16 9 3 1 2 3 1 5v256l-4 8-3 2-5 1h-100l-6-4-2-2-1-7v-181l-5-5-11-8-12-5-9-7-13-5-8-7-15-6-7-6-12-5-5-3-6-5-10-3h-10l-10 3-11 8-12 4-9 6-5 3-10 3-6 4h-2v2l-12 5-10 5-7 5-12 4-6 4h-2v2l-8 4-2 6v182l-3 6-3 2-5 1h-98l-7-3-4-6v-262l4-6 9-4 16-9 15-8 15-7 34-17 13-7 10-4 4-3 13-6 50-25 7-3 8-5 14-6 10-6 16-8z" fill="#2D3091"/>
<path transform="translate(174,883)" d="m0 0h20l7 6 4 5 6 4 3 4v2h2v2l4 2 5 5 4 5 6 4 4 5v2l4 2 6 5 7 8 5 4v2h2l6 7 5 4 4 5v2l4 2 5 4 7 8 5 5 2 4 4 2 7 6 5 6 7 6 4 5 8 7 5 5 6 7 1 2v7l-3 5-3 2h-11l-7-6v-2h-2v-2l-5-2-8-9-6-4-5-6-9-7-5-6-6-3h-188l-8 4-5 5-6 5-4 6-5 4-6 5-5 6-5 2v2h-2l-2 4-5 4h-11l-5-5v-9l3-6 7-5 2-4h2v-2l6-4 5-6 5-4v-5l-4-4-1-9 3-5 5-2 23-1 5-5 10-9 6-8 8-7 5-6 5-2 2-5 5-5 6-5 6-8 6-4 5-7 4-3h2l2-4 7-8 4-3h2l1-4z" fill="#2D3091"/>
<path transform="translate(1072,883)" d="m0 0h160l6 4 6 8 8 5 2 4 1 6v22l-4 7-3 2h-8l-6-5-1-3-1-14-3-6-7-6-3-1h-135l-5 3h-2l-2 4-3 7v27l2 7 1 1 152 1 8 2 10 10 8 6 2 6v42l-3 10-10 9-6 8-4 2-6 1h-150l-8-3-8-10-8-6-2-6-1-5v-30l4-8 8-2 6 3 4 6 1 4v19l3 6 5 5 7 4 133-1 5-5 5-4 2-5v-23l-3-9-6-2-153-1-6-3-11-9-3-6-1-4v-47l2-9 5-4 5-2v-2h2l2-5 5-4z" fill="#2D3091"/>
<path transform="translate(797,883)" d="m0 0h173l6 3 3 2 1 8-4 6-9 3-162 1-3 4v67l3 3 136 1 4 2 3 6v7l-2 4-7 3-135 1-2 3v19l1 2 159 1 11 2 6 5v9l-3 4-9 3h-175l-7-2-4-4-1-3-1-14v-23l-1-3-6-2-4-6 1-8 1-3 6-3h2l1-3v-74l3-9 3-5 7-5z" fill="#2D3091"/>
<path transform="translate(680,883)" d="m0 0 8 2 3 6 1 58v87l-2 10-4 4-2 1-10-1-4-4-1-6v-109l-1-6-4 1-7 6-4 7-7 6-7 9-7 6-3 5-5 2v2l-10 10-12 13-7 6-7 8-20 20-3 1h-15l-3-1v-2l-4-2v-2h-2v-2l-4-2-9-10-2-1v-2l-3-1-4-5v-2h-2v-2l-4-2-2-4h-2l-6-7-5-4-4-6-8-7-6-7-5-4-6-8-7-6-4-6v-2h-2v-2l-5-2-3-1-1 4-1 115-3 5-5 2h-6l-6-4-2-7v-145l2-7 5-4h10l7 5v2h2v2l4 2 6 7v2l5 2 7 8v2h2l9 9 2 4h2l1 2 5 3 5 8 5 3v2h2l6 8 8 7 7 8 5 5 2 4h2v2l4 2 5 5 6 7 6 5 4-1 7-5 9-11 5-2v-2h2l2-4 5-5 12-13 5-4 6-8 5-2 2-4 1-3h2l1-3 5-2 2-4 7-8 6-5 7-8 5-4 7-8 9-9z" fill="#2D3091"/>
<path transform="translate(181,907)" d="m0 0 7 1 4 5v2l4 2 5 4 6 8 7 6 5 7 7 6 6 7 2 1v2h2v2l3 1 5 5 10 9 1 3-3 3h-136l-3-2 1-5 8-7 6-5 5-6 5-2v-2h2l1-4 1-2h2v-2l6-4 6-8 8-7 14-16z" fill="#FEFFFE"/>
</svg>
